PathFileType	4	(X/Y/Z)	c:/Users/goper/Files/vsCode/490R/osim_files/C07/C07_Slow_06.trc
DataRate	CameraRate	NumFrames	NumMarkers	Units                	OrigDataRate	OrigDataStartFrame	OrigNumFrames
250.00	250.00	5	36	mm	250.0	763	3051
                Frame#	Time	LPSIS			LASIS			LTH1			LTH2			LTH3			LTH4			LLFE			LMFE			LSH1			LSH2			LSH3			LSH4			LLMAL			LMMAL			LCAL			LMTP5			LTOE			LMTP1			RPSIS			RASIS			RTH1			RTH2			RTH3			RTH4			RLFE			RMFE			RSH1			RSH2			RSH3			RSH4			RLMAL			RMMAL			RCAL			RMTP1			RTOE			RMTP5		
		X1	Y1	Z1	X2	Y2	Z2	X3	Y3	Z3	X4	Y4	Z4	X5	Y5	Z5	X6	Y6	Z6	X7	Y7	Z7	X8	Y8	Z8	X9	Y9	Z9	X10	Y10	Z10	X11	Y11	Z11	X12	Y12	Z12	X13	Y13	Z13	X14	Y14	Z14	X15	Y15	Z15	X16	Y16	Z16	X17	Y17	Z17	X18	Y18	Z18	X19	Y19	Z19	X20	Y20	Z20	X21	Y21	Z21	X22	Y22	Z22	X23	Y23	Z23	X24	Y24	Z24	X25	Y25	Z25	X26	Y26	Z26	X27	Y27	Z27	X28	Y28	Z28	X29	Y29	Z29	X30	Y30	Z30	X31	Y31	Z31	X32	Y32	Z32	X33	Y33	Z33	X34	Y34	Z34	X35	Y35	Z35	X36	Y36	Z36

763	3.04800	1031.24219	1006.86981	381.35190	863.85052	985.87823	456.11841	0.00000	0.00000	0.00000	0.00000	0.00000	0.00000	782.18219	659.66357	502.20947	0.00000	0.00000	0.00000	749.69623	542.84521	477.47696	743.66266	530.38202	359.01715	753.91052	356.53079	490.98663	0.00000	0.00000	0.00000	713.33649	368.02509	483.35355	0.00000	0.00000	0.00000	748.31561	132.26382	439.15726	719.70911	155.60493	368.54321	800.71393	69.10388	388.69318	622.09814	60.56032	469.73486	565.37933	75.73930	417.05099	592.34033	58.53938	364.83444	1025.88269	1017.14252	280.26584	862.09241	975.47351	203.69258	929.96332	828.36230	151.49831	939.13904	749.62238	155.85384	951.33459	669.32770	168.11668	870.13043	743.63147	190.45119	998.58917	498.33655	212.05017	997.88873	511.39923	321.74509	1092.35803	329.29938	208.73975	1072.51501	276.26056	209.42693	1032.19238	320.40503	210.71886	1042.58215	278.83362	215.44449	0.00000	0.00000	0.00000	1098.01733	119.40456	342.13867	1181.80200	61.27307	315.83469	970.77570	44.85061	326.80807	951.28949	56.70006	275.57520	1004.79443	45.93269	220.34686
764	3.05200	1028.18909	1006.46710	380.71527	860.01239	985.16833	455.93246	0.00000	0.00000	0.00000	0.00000	0.00000	0.00000	779.86224	658.30481	502.30829	0.00000	0.00000	0.00000	747.11340	541.62408	477.32697	740.80298	529.04852	358.78549	747.96442	354.86725	490.64743	0.00000	0.00000	0.00000	708.22833	366.57788	479.81653	0.00000	0.00000	0.00000	737.19659	130.76329	438.78720	709.22345	154.70465	368.19400	788.43250	66.64610	388.45923	609.44867	61.21208	468.89407	553.18848	77.52187	416.02841	579.87866	60.01799	363.86719	1021.93274	1016.58130	280.29355	858.29828	974.94696	203.52893	926.72815	828.10608	151.28014	936.31183	749.45306	155.74449	948.89093	669.21210	168.04234	867.24304	743.16821	190.37473	996.95331	498.33774	212.01627	996.23315	511.50275	321.66898	1091.66150	329.79483	208.62703	1071.87720	276.52646	209.43420	1031.19727	320.42239	210.78839	1041.86475	279.04596	215.38429	0.00000	0.00000	0.00000	1097.73999	119.74981	342.19666	1181.66260	61.77715	315.88446	970.74487	44.81766	326.81757	951.27997	56.58385	275.57474	1004.80280	45.89374	220.33183
765	3.05600	1023.72491	1005.66156	381.06104	856.08752	984.43842	455.85794	0.00000	0.00000	0.00000	0.00000	0.00000	0.00000	777.66815	656.88049	502.37491	0.00000	0.00000	0.00000	744.59558	540.22510	477.17303	738.04871	527.69067	358.53143	742.11682	353.24081	490.30151	0.00000	0.00000	0.00000	702.12201	365.38617	479.55661	0.00000	0.00000	0.00000	726.77905	129.33173	438.43796	698.94183	153.97412	367.88120	776.24249	64.20735	388.40356	596.89026	62.06902	467.94193	541.21814	79.53954	415.03088	567.83301	61.76769	362.86606	1017.98499	1016.00488	280.35944	854.50500	974.42578	203.35103	923.50854	827.90521	150.92821	933.52930	749.26831	155.57295	946.42993	669.13690	167.99068	864.54370	742.73077	190.29449	995.46832	498.49017	211.81471	994.56519	511.59064	321.61310	1090.55542	330.02054	208.78670	1071.19946	276.87939	209.32458	1030.49792	320.73224	210.58427	1041.19861	279.32947	215.26616	0.00000	0.00000	0.00000	1097.46802	120.17787	342.33047	1181.52075	62.30083	315.96234	970.68152	44.79633	326.83032	951.23157	56.39213	275.65247	1004.77020	45.91740	220.32133
766	3.06000	1019.38495	1004.92413	381.33618	852.17871	983.74945	455.87027	0.00000	0.00000	0.00000	0.00000	0.00000	0.00000	775.48315	655.37714	502.47382	0.00000	0.00000	0.00000	742.18628	538.75769	477.05710	735.42737	526.27808	358.16031	736.36597	351.65170	489.94965	0.00000	0.00000	0.00000	696.33154	364.81546	479.48746	0.00000	0.00000	0.00000	715.60858	127.99075	438.36230	688.80194	153.29141	367.62717	764.19397	61.87979	388.41257	584.73340	62.97378	467.16803	529.35645	81.77246	414.01300	555.87469	63.77593	361.86826	1014.18628	1015.57489	280.25110	850.71124	973.91046	203.16023	920.25012	827.70007	150.65622	930.73871	749.17456	155.34998	944.05371	669.07861	167.90562	861.76404	742.35242	190.19342	993.78528	498.49966	211.76596	992.80829	511.62668	321.52844	1089.86536	330.57465	208.62151	1070.47961	277.18558	209.34325	1029.50610	320.82999	210.62114	1040.51892	279.55661	215.19858	0.00000	0.00000	0.00000	1097.15002	120.56600	342.37759	1181.37842	62.84408	316.07462	970.64893	44.77674	326.85529	951.24805	56.23324	275.74658	1004.77155	45.90974	220.33481
767	3.06400	1016.27209	1004.53473	380.78381	848.01392	983.15302	455.91385	0.00000	0.00000	0.00000	0.00000	0.00000	0.00000	773.32941	653.92810	502.55984	0.00000	0.00000	0.00000	739.74353	537.29865	476.99637	732.84930	524.82507	357.84247	730.70966	350.09995	489.59247	0.00000	0.00000	0.00000	689.65692	363.78458	482.24796	0.00000	0.00000	0.00000	705.05524	126.81339	438.15646	678.91077	152.71138	367.35892	752.38190	59.74978	388.40048	572.62372	64.09290	466.28897	517.94629	84.15147	412.92825	543.62781	65.81558	360.78442	1010.37311	1015.05841	280.18073	846.91553	973.40131	202.95796	916.99396	827.55792	150.38454	927.79688	748.96729	155.21323	941.56708	669.02368	167.75398	859.04327	741.94141	190.06706	992.23108	498.66132	211.57951	991.10748	511.68155	321.47809	1088.76514	330.87463	208.78568	1069.80737	277.61011	209.26854	1028.69958	321.06049	210.48314	1039.74902	279.83450	215.07721	0.00000	0.00000	0.00000	1096.80042	120.92272	342.34927	1181.23779	63.40691	316.22742	970.62311	44.75510	326.89819	951.24725	56.11707	275.80655	1004.74390	45.93507	220.30585
